# xmcd
#
# Track frame offsets:
#	180
#	12949
#	23356
#	33348
#	47749
#	60255
#	72216
#	85600
#	98455
#	116695
#	127580
#	140281
#	153965
#	166440
#	181553
#
# Disc length: 2612 seconds
#
# Revision: 0
# Processed by: cddbd v1.4PL0 Copyright (c) Steve Scherf et al.
# Submitted via: MusicWizard 6.0.0
#
DISCID=9e0a320f
DTITLE=Tommy Cash - Classics
DYEAR=1900
DGENRE=Country
TTITLE0=Six White Horses
TTITLE1=That Certain One
TTITLE2=Guess Things Happen That Way
TTITLE3=Oh Lonesome Me
TTITLE4=We've Got Love
TTITLE5=Tribute To A Princess
TTITLE6=American Original
TTITLE7=Gypsy Woman
TTITLE8=Old Glory Soong
TTITLE9=Pick Me Up On Your Way Down
TTITLE10=Silver Haired Daddy Of Mine
TTITLE11=Where Did All The Old Timers Go
TTITLE12=Since I Met You Baby
TTITLE13=Old Flames
TTITLE14=Will The Circle Be Unbroken
EXTD=(c)Tommy Cash (Tomcat Productions), Hendersonville TN
EXTT0=
EXTT1=
EXTT2=
EXTT3=
EXTT4=
EXTT5=
EXTT6=
EXTT7=
EXTT8=
EXTT9=
EXTT10=
EXTT11=
EXTT12=
EXTT13=
EXTT14=
PLAYORDER=
